<?xml version="1.0" encoding="utf-8"?>
<!-- Generator: Adobe Illustrator 22.1.0, SVG Export Plug-In . SVG Version: 6.00 Build 0)  -->
<svg version="1.1" id="Layer_1" xmlns="http://www.w3.org/2000/svg" xmlns:xlink="http://www.w3.org/1999/xlink" x="0px" y="0px"
	 viewBox="0 0 173 97" style="enable-background:new 0 0 173 97;" xml:space="preserve">
<style type="text/css">
	.st0{fill:#A82E2E;}
	.st1{fill:#B53535;stroke:#B53535;stroke-width:3.000000e-02;stroke-miterlimit:10;}
</style>
<path class="st0" d="M107,36.4c0.1,0.4,0.1,0.8,0.1,1.2c0,6.4-9.2,11.6-20.6,11.6S65.9,44,65.9,37.6c0-0.4,0-0.8,0.1-1.2
	c-0.1,0.4-0.1,0.8-0.1,1.2v19.6c0,6.4,9.2,11.6,20.6,11.6s20.6-5.2,20.6-11.6V37.6C107.1,37.2,107.1,36.8,107,36.4z M77.7,61.8
	c-2.3,0-4.1-2.3-4.1-5.2s1.8-5.2,4.1-5.2s4.1,2.3,4.1,5.2C81.8,59.4,79.9,61.8,77.7,61.8z M95.2,61.8c-2.3,0-4.1-2.3-4.1-5.2
	s1.8-5.2,4.1-5.2s4.1,2.3,4.1,5.2C99.3,59.4,97.5,61.8,95.2,61.8z"/>
<path class="st1" d="M86.5,26c-11.4,0-20.6,5.2-20.6,11.6c0,6.4,9.2,11.6,20.6,11.6s20.6-5.2,20.6-11.6S97.9,26,86.5,26z M86.6,42
	c-4.1,0-7.4-1.9-7.4-4.2s3.3-4.2,7.4-4.2c4.1,0,7.4,1.9,7.4,4.2S90.7,42,86.6,42z"/>
</svg>
