<?xml version="1.0" encoding="utf-8"?>
<!-- Generator: Adobe Illustrator 22.1.0, SVG Export Plug-In . SVG Version: 6.00 Build 0)  -->
<svg version="1.1" id="Layer_1" xmlns="http://www.w3.org/2000/svg" xmlns:xlink="http://www.w3.org/1999/xlink" x="0px" y="0px"
	 viewBox="0 0 173 97" style="enable-background:new 0 0 173 97;" xml:space="preserve">
<style type="text/css">
	.st0{opacity:0.1;enable-background:new    ;}
	.st1{opacity:0.1;stroke:#B53535;stroke-width:3.000000e-02;stroke-miterlimit:10;enable-background:new    ;}
	.st2{fill:#A82E2E;}
	.st3{fill:#B53535;stroke:#B53535;stroke-width:3.000000e-02;stroke-miterlimit:10;}
</style>
<g id="Shadow">
	<path class="st0" d="M112.4,55.9c0.1,0.5,0.1,1,0.1,1.5c0,8.1-11.6,14.7-26,14.7s-26-6.6-26-14.7c0-0.5,0-1,0.1-1.5
		c-0.1,0.5-0.1,1-0.1,1.5v24.7c0,8.1,11.6,14.7,26,14.7s26-6.6,26-14.7V57.4C112.5,56.9,112.5,56.3,112.4,55.9z M75.3,87.8
		c-2.9,0-5.2-2.9-5.2-6.5s2.3-6.5,5.2-6.5s5.2,2.9,5.2,6.5C80.6,84.9,78.2,87.8,75.3,87.8z M97.4,87.8c-2.9,0-5.2-2.9-5.2-6.5
		s2.3-6.5,5.2-6.5s5.2,2.9,5.2,6.5C102.7,84.9,100.3,87.8,97.4,87.8z"/>
	<path class="st1" d="M86.5,42.7c-14.4,0-26,6.6-26,14.7s11.6,14.7,26,14.7s26-6.6,26-14.7S100.9,42.7,86.5,42.7z M86.6,62.8
		c-5.2,0-9.4-2.4-9.4-5.3c0-2.9,4.2-5.3,9.4-5.3s9.4,2.4,9.4,5.3C96,60.4,91.8,62.8,86.6,62.8z"/>
</g>
<g id="Edit">
	<path class="st2" d="M112.4,53.4c0.1,0.5,0.1,1,0.1,1.5c0,8.1-11.6,14.7-26,14.7s-26-6.6-26-14.7c0-0.5,0-1,0.1-1.5
		c-0.1,0.5-0.1,1-0.1,1.5v24.7c0,8.1,11.6,14.7,26,14.7s26-6.6,26-14.7V54.9C112.5,54.4,112.5,53.9,112.4,53.4z M75.3,85.3
		c-2.9,0-5.2-2.9-5.2-6.5s2.3-6.5,5.2-6.5s5.2,2.9,5.2,6.5C80.6,82.4,78.2,85.3,75.3,85.3z M97.4,85.3c-2.9,0-5.2-2.9-5.2-6.5
		s2.3-6.5,5.2-6.5s5.2,2.9,5.2,6.5C102.7,82.4,100.3,85.3,97.4,85.3z"/>
	<path class="st3" d="M86.5,40.2c-14.4,0-26,6.6-26,14.7s11.6,14.7,26,14.7s26-6.6,26-14.7S100.9,40.2,86.5,40.2z M86.6,60.3
		c-5.2,0-9.4-2.4-9.4-5.3s4.2-5.3,9.4-5.3S96,52.1,96,55S91.8,60.3,86.6,60.3z"/>
</g>
</svg>
