<?xml version="1.0" encoding="utf-8"?>
<!-- Generator: Adobe Illustrator 22.1.0, SVG Export Plug-In . SVG Version: 6.00 Build 0)  -->
<svg version="1.1" id="EDIT" xmlns="http://www.w3.org/2000/svg" xmlns:xlink="http://www.w3.org/1999/xlink" x="0px" y="0px"
	 viewBox="0 0 173 97" style="enable-background:new 0 0 173 97;" xml:space="preserve">
<style type="text/css">
	.st0{fill:#A82E2E;}
	.st1{fill:#333333;}
	.st2{clip-path:url(#SVGID_2_);fill:#333333;}
	.st3{enable-background:new    ;}
	.st4{fill:#FFFFFF;}
</style>
<g id="Scenes_x5F__x5B_Selection_x5D_">
	<path id="XMLID_54_" class="st0" d="M118.5,70.8H54.6c-4.1,0-7.3-3.2-7.3-7.3V35.7c0-4.1,3.2-7.3,7.3-7.3h63.9
		c4.1,0,7.3,3.2,7.3,7.3v27.8C125.8,67.5,122.5,70.8,118.5,70.8z"/>
	<path id="XMLID_8_" class="st1" d="M118.5,70.8H54.6c-4.1,0-7.3-3.2-7.3-7.3v-30c0-4.1,3.2-7.3,7.3-7.3h14c2.9,0,4.4,1.5,5.5,2.6
		c0.9,0.9,2.6,2.5,8.9,2.5h35.5c4.1,0,7.3,3.2,7.3,7.3v24.9C125.8,67.5,122.5,70.8,118.5,70.8z"/>
	<g>
		<g>
			<g>
				<g>
					<g>
						<defs>
							<rect id="SVGID_1_" x="23" y="14.3" width="80.5" height="71.3"/>
						</defs>
						<clipPath id="SVGID_2_">
							<use xlink:href="#SVGID_1_"  style="overflow:visible;"/>
						</clipPath>
						<path id="XMLID_53_" class="st2" d="M118.5,70.8H54.6c-4.1,0-7.3-3.2-7.3-7.3v-30c0-4.1,3.2-7.3,7.3-7.3h14
							c2.9,0,4.4,1.5,5.5,2.6c0.9,0.9,2.6,2.5,8.9,2.5h35.5c4.1,0,7.3,3.2,7.3,7.3v24.9C125.8,67.5,122.5,70.8,118.5,70.8z"/>
					</g>
				</g>
			</g>
		</g>
	</g>
	<g id="Layer_24_copy_2">
	</g>
</g>
<path class="st0" d="M118.7,70.8h-10.6v-8.4c0-1.6,1.3-2.8,2.8-2.8h14.8v4.1C125.8,67.6,122.6,70.8,118.7,70.8z"/>
<g class="st3">
	<path class="st4" d="M114,66.2c0.9-0.8,1.5-1.4,1.5-1.9c0-0.3-0.2-0.5-0.5-0.5c-0.2,0-0.4,0.2-0.6,0.3l-0.5-0.5
		c0.4-0.4,0.7-0.6,1.3-0.6c0.7,0,1.3,0.5,1.3,1.2c0,0.6-0.6,1.2-1.1,1.8c0.2,0,0.5,0,0.6,0h0.6v0.8H114V66.2z"/>
	<path class="st4" d="M119.3,64c-0.1-0.1-0.3-0.3-0.6-0.3c-0.4,0-0.6,0.2-0.7,1c0.2-0.2,0.5-0.4,0.7-0.4c0.6,0,1.1,0.3,1.1,1.1
		c0,0.8-0.6,1.3-1.3,1.3c-0.7,0-1.4-0.5-1.4-1.8c0-1.3,0.7-2,1.5-2c0.5,0,0.9,0.2,1.1,0.5L119.3,64z M118.9,65.6
		c0-0.4-0.2-0.4-0.4-0.4c-0.2,0-0.3,0.1-0.5,0.3c0.1,0.5,0.3,0.6,0.5,0.6S118.9,65.9,118.9,65.6z"/>
</g>
</svg>
