<?xml version="1.0" encoding="utf-8"?>
<!-- Generator: Adobe Illustrator 22.1.0, SVG Export Plug-In . SVG Version: 6.00 Build 0)  -->
<svg version="1.1" id="EDIT" xmlns="http://www.w3.org/2000/svg" xmlns:xlink="http://www.w3.org/1999/xlink" x="0px" y="0px"
	 viewBox="0 0 173 97" style="enable-background:new 0 0 173 97;" xml:space="preserve">
<style type="text/css">
	.st0{fill:#892121;}
	.st1{fill:#992828;}
	.st2{fill:#A82E2E;}
	.st3{display:none;fill:#A82E2E;}
	.st4{fill:#333333;}
	.st5{clip-path:url(#SVGID_2_);fill:#333333;}
	.st6{enable-background:new    ;}
	.st7{fill:#FFFFFF;}
</style>
<g id="Scenes_x5F__x5B_Selection_x5D_">
	<path id="Rotate_x5F_002" class="st0" d="M122.2,59.2c0,0-50.5,4.7-56.2,5.7c-5.7,1-6.6,4.2-8,0.3l-7.3-14.9
		c-1.4-3.9-5.2-7.9-1.3-9.3l60-22c3.9-1.4,8,0.5,9.4,4.3l4.2,27.4C124.3,54.6,126,57.9,122.2,59.2z"/>
	<path id="Rotate_x5F_001" class="st1" d="M121.7,65l-61.6,2.1c-4,0.7-6.5,3.1-7.2-1l-4.3-22.2c-0.7-4-1.3-8.8,2.7-9.5l62.9-11.1
		c4-0.7,7.7,1.9,8.5,5.9l1.6,27.2C125.1,60.3,125.7,64.3,121.7,65z"/>
	<path id="Rotate_x5F_000" class="st2" d="M118.5,70.8H54.6c-4.1,0-7.3-3.2-7.3-7.3V35.7c0-4.1,3.2-7.3,7.3-7.3h63.9
		c4.1,0,7.3,3.2,7.3,7.3v27.8C125.8,67.5,122.5,70.8,118.5,70.8z"/>
	<path id="XMLID_54_" class="st3" d="M118.5,70.8H54.6c-4.1,0-7.3-3.2-7.3-7.3V35.7c0-4.1,3.2-7.3,7.3-7.3h63.9
		c4.1,0,7.3,3.2,7.3,7.3v27.8C125.8,67.5,122.5,70.8,118.5,70.8z"/>
	<path id="XMLID_8_" class="st4" d="M118.5,70.8H54.6c-4.1,0-7.3-3.2-7.3-7.3v-30c0-4.1,3.2-7.3,7.3-7.3h14c2.9,0,4.4,1.5,5.5,2.6
		c0.9,0.9,2.6,2.5,8.9,2.5h35.5c4.1,0,7.3,3.2,7.3,7.3v24.9C125.8,67.5,122.5,70.8,118.5,70.8z"/>
	<g>
		<g>
			<g>
				<g>
					<g>
						<g>
							<defs>
								<rect id="SVGID_1_" x="23" y="14.3" width="80.5" height="71.3"/>
							</defs>
							<clipPath id="SVGID_2_">
								<use xlink:href="#SVGID_1_"  style="overflow:visible;"/>
							</clipPath>
							<path id="XMLID_53_" class="st5" d="M118.5,70.8H54.6c-4.1,0-7.3-3.2-7.3-7.3v-30c0-4.1,3.2-7.3,7.3-7.3h14
								c2.9,0,4.4,1.5,5.5,2.6c0.9,0.9,2.6,2.5,8.9,2.5h35.5c4.1,0,7.3,3.2,7.3,7.3v24.9C125.8,67.5,122.5,70.8,118.5,70.8z"/>
						</g>
					</g>
				</g>
			</g>
		</g>
	</g>
	<g id="Layer_24_copy_2">
	</g>
</g>
<path class="st2" d="M118.7,70.8h-10.6v-8.4c0-1.6,1.3-2.8,2.8-2.8h14.8v4.1C125.8,67.6,122.6,70.8,118.7,70.8z"/>
<g class="st6">
	<path class="st7" d="M112.4,66.2c0.9-0.8,1.5-1.4,1.5-1.9c0-0.3-0.2-0.5-0.5-0.5c-0.2,0-0.4,0.2-0.6,0.3l-0.5-0.5
		c0.4-0.4,0.7-0.6,1.3-0.6c0.7,0,1.3,0.5,1.3,1.2c0,0.6-0.6,1.2-1.1,1.8c0.2,0,0.5,0,0.6,0h0.6v0.8h-2.7L112.4,66.2L112.4,66.2z"/>
	<path class="st7" d="M115.9,65.7c0.2,0.2,0.5,0.3,0.8,0.3s0.5-0.1,0.5-0.3c0-0.3-0.1-0.4-0.9-0.4v-0.7c0.6,0,0.8-0.2,0.8-0.4
		c0-0.2-0.1-0.3-0.4-0.3c-0.2,0-0.4,0.1-0.6,0.3l-0.5-0.6c0.4-0.3,0.7-0.5,1.2-0.5c0.8,0,1.3,0.4,1.3,1c0,0.4-0.2,0.6-0.6,0.8l0,0
		c0.4,0.1,0.7,0.4,0.7,0.9c0,0.7-0.7,1.1-1.4,1.1c-0.6,0-1-0.2-1.3-0.5L115.9,65.7z"/>
	<path class="st7" d="M118.7,64.9c0-1.3,0.6-1.9,1.4-1.9s1.4,0.6,1.4,1.9s-0.6,1.9-1.4,1.9C119.2,66.8,118.7,66.1,118.7,64.9z
		 M120.5,64.9c0-1-0.2-1.1-0.4-1.1c-0.2,0-0.4,0.2-0.4,1.1s0.2,1.2,0.4,1.2C120.3,66,120.5,65.9,120.5,64.9z"/>
</g>
</svg>
