<?xml version="1.0" encoding="utf-8"?>
<!-- Generator: Adobe Illustrator 22.1.0, SVG Export Plug-In . SVG Version: 6.00 Build 0)  -->
<svg version="1.1" id="EDIT" xmlns="http://www.w3.org/2000/svg" xmlns:xlink="http://www.w3.org/1999/xlink" x="0px" y="0px"
	 viewBox="0 0 173 97" style="enable-background:new 0 0 173 97;" xml:space="preserve">
<style type="text/css">
	.st0{display:none;fill:#A82E2E;}
	.st1{fill:#A82E2E;}
	.st2{display:none;fill:#B53535;}
	.st3{fill:#333333;}
	.st4{clip-path:url(#SVGID_2_);fill:#333333;}
	.st5{enable-background:new    ;}
	.st6{fill:#FFFFFF;}
</style>
<g id="Scenes_x5F__x5B_Selection_x5D_">
	<path id="_x3C_Rectangle_x3E__x5B_original_x5D__2_" class="st0" d="M118.5,70.8H54.6c-4.1,0-7.3-3.2-7.3-7.3v-30
		c0-4.1,3.2-7.3,7.3-7.3h63.9c4.1,0,7.3,3.2,7.3,7.3v30C125.8,67.5,122.5,70.8,118.5,70.8z"/>
	<path id="XMLID_54_" class="st1" d="M118.5,70.8H54.6c-4.1,0-7.3-3.2-7.3-7.3V35.7c0-4.1,3.2-7.3,7.3-7.3h63.9
		c4.1,0,7.3,3.2,7.3,7.3v27.8C125.8,67.5,122.5,70.8,118.5,70.8z"/>
	<path id="XMLID_13_" class="st2" d="M118.5,70.8H54.6c-4.1,0-7.3-3.2-7.3-7.3V35.7c0-4.1,3.2-7.3,7.3-7.3h63.9
		c4.1,0,7.3,3.2,7.3,7.3v27.8C125.8,67.5,122.5,70.8,118.5,70.8z"/>
	<path id="XMLID_8_" class="st3" d="M118.5,70.8H54.6c-4.1,0-7.3-3.2-7.3-7.3v-30c0-4.1,3.2-7.3,7.3-7.3h14c2.9,0,4.4,1.5,5.5,2.6
		c0.9,0.9,2.6,2.5,8.9,2.5h35.5c4.1,0,7.3,3.2,7.3,7.3v24.9C125.8,67.5,122.5,70.8,118.5,70.8z"/>
	<g>
		<g>
			<g>
				<g>
					<g>
						<defs>
							<rect id="SVGID_1_" x="23" y="14.3" width="80.5" height="71.3"/>
						</defs>
						<clipPath id="SVGID_2_">
							<use xlink:href="#SVGID_1_"  style="overflow:visible;"/>
						</clipPath>
						<path id="XMLID_53_" class="st4" d="M118.5,70.8H54.6c-4.1,0-7.3-3.2-7.3-7.3v-30c0-4.1,3.2-7.3,7.3-7.3h14
							c2.9,0,4.4,1.5,5.5,2.6c0.9,0.9,2.6,2.5,8.9,2.5h35.5c4.1,0,7.3,3.2,7.3,7.3v24.9C125.8,67.5,122.5,70.8,118.5,70.8z"/>
					</g>
				</g>
			</g>
		</g>
	</g>
	<path id="XMLID_52_" class="st2" d="M47.3,31.1c0-2.6,2-4.7,4.1-4.7c2,0,20.2,0,22,0c3.1,0,5.2,3.3,8,3.3c3.5,0,37.6,0,39.6,0
		c3.1,0,4.7,2.3,4.7,4.5c0,2.9,0,28.4,0,30.6s-3.2,6-6.1,6s-64.5,0-66.5,0c-0.7,0-5.7-2.8-5.7-3.8C47.3,64.7,47.3,31.1,47.3,31.1z"
		/>
	<path id="XMLID_51_" class="st0" d="M121.4,70.8h-70c-2,0-4.2-2.2-4.2-4.2V36.9c0-2.3,1.9-4.2,4.2-4.2h70c2.3,0,4.2,1.9,4.2,4.2
		v29.7C125.7,68.3,123.6,70.8,121.4,70.8z"/>
	<g id="Layer_24_copy_2">
	</g>
</g>
<path class="st1" d="M118.7,70.8h-10.6v-8.4c0-1.6,1.3-2.8,2.8-2.8h14.8v4.1C125.8,67.6,122.6,70.8,118.7,70.8z"/>
<g class="st5">
	<path class="st6" d="M112.8,65.7c0.2,0.2,0.5,0.3,0.8,0.3s0.5-0.1,0.5-0.3c0-0.3-0.1-0.4-0.9-0.4v-0.7c0.6,0,0.8-0.2,0.8-0.4
		c0-0.2-0.1-0.3-0.4-0.3c-0.2,0-0.4,0.1-0.6,0.3l-0.5-0.6c0.4-0.3,0.7-0.5,1.2-0.5c0.8,0,1.3,0.4,1.3,1c0,0.4-0.2,0.6-0.6,0.8l0,0
		c0.4,0.1,0.7,0.4,0.7,0.9c0,0.7-0.7,1.1-1.4,1.1c-0.6,0-1-0.2-1.3-0.5L112.8,65.7z"/>
	<path class="st6" d="M115.5,64.9c0-1.3,0.6-1.9,1.4-1.9s1.4,0.6,1.4,1.9s-0.6,1.9-1.4,1.9S115.5,66.1,115.5,64.9z M117.3,64.9
		c0-1-0.2-1.1-0.4-1.1c-0.2,0-0.4,0.2-0.4,1.1s0.2,1.2,0.4,1.2C117.1,66,117.3,65.9,117.3,64.9z"/>
	<path class="st6" d="M118.7,64.9c0-1.3,0.6-1.9,1.4-1.9s1.4,0.6,1.4,1.9s-0.6,1.9-1.4,1.9C119.2,66.8,118.7,66.1,118.7,64.9z
		 M120.5,64.9c0-1-0.2-1.1-0.4-1.1c-0.2,0-0.4,0.2-0.4,1.1s0.2,1.2,0.4,1.2C120.3,66,120.5,65.9,120.5,64.9z"/>
</g>
</svg>
