<svg enable-background="new -873 492 173 97" viewBox="-873 492 173 97" xmlns="http://www.w3.org/2000/svg" xmlns:xlink="http://www.w3.org/1999/xlink"><clipPath id="a"><path d="m-846.6 510.7h106.1v106.1h-106.1z" transform="matrix(-.7071 -.7071 .7071 -.7071 -1753.2753 401.1786)"/></clipPath><clipPath id="b"><path d="m-784.9 521.2h33.7v33.7h-33.7z" transform="matrix(-.7071 -.7071 .7071 -.7071 -1691.636 375.3818)"/></clipPath><path clip-path="url(#a)" d="m-754.4 562.9h-64c-4.1 0-7.3-3.2-7.3-7.3v-30c0-4.1 3.2-7.3 7.3-7.3h64c4.1 0 7.3 3.2 7.3 7.3v30c0 3.9-3.2 7.3-7.3 7.3z" fill="#a82e2e"/><path clip-path="url(#b)" d="m-750.2 535.2h-6.4c-4.1 0-7.3-3.2-7.3-7.3v-6.4c0-4.1 3.2-7.3 7.3-7.3h6.4c4.1 0 7.3 3.2 7.3 7.3v6.4c0 4.1-3.3 7.3-7.3 7.3z" fill="#b53535"/></svg>