<?xml version="1.0" encoding="utf-8"?>
<!-- Generator: Adobe Illustrator 22.1.0, SVG Export Plug-In . SVG Version: 6.00 Build 0)  -->
<svg version="1.1" id="Folder" xmlns="http://www.w3.org/2000/svg" xmlns:xlink="http://www.w3.org/1999/xlink" x="0px" y="0px"
	 viewBox="0 0 173 97" style="enable-background:new 0 0 173 97;" xml:space="preserve">
<style type="text/css">
	.st0{fill:#A82E2E;}
	.st1{fill:#333333;}
</style>
<path id="XMLID_54_" class="st0" d="M118.5,70.8H54.6c-4.1,0-7.3-3.2-7.3-7.3V35.7c0-4.1,3.2-7.3,7.3-7.3h63.9
	c4.1,0,7.3,3.2,7.3,7.3v27.8C125.8,67.5,122.5,70.8,118.5,70.8z"/>
<path id="XMLID_8_" class="st1" d="M118.5,70.8H54.6c-4.1,0-7.3-3.2-7.3-7.3v-30c0-4.1,3.2-7.3,7.3-7.3h14c2.9,0,4.4,1.5,5.5,2.6
	c0.9,0.9,2.6,2.5,8.9,2.5h35.5c4.1,0,7.3,3.2,7.3,7.3v24.9C125.8,67.5,122.5,70.8,118.5,70.8z"/>
</svg>
