<?xml version="1.0" encoding="utf-8"?>
<!-- Generator: Adobe Illustrator 22.1.0, SVG Export Plug-In . SVG Version: 6.00 Build 0)  -->
<svg version="1.1" id="Layer_1" xmlns="http://www.w3.org/2000/svg" xmlns:xlink="http://www.w3.org/1999/xlink" x="0px" y="0px"
	 viewBox="0 0 173 97" style="enable-background:new 0 0 173 97;" xml:space="preserve">
<style type="text/css">
	.st0{opacity:0.25;fill:none;stroke:#FFFFFF;stroke-linecap:round;stroke-linejoin:round;stroke-dasharray:5.8843,5.8843;}
</style>
<path class="st0" d="M125.7,34.3c0-2.2-1.6-4.5-4.7-4.5c-2,0-36.2,0-39.7,0c-2.8,0-5-3.3-8-3.3c-1.7,0-20,0-22,0s-4.1,2-4.1,4.7
	c0,0,0,2.4,0,5.8v28.9v0.8c0,2,2.2,4.2,4.2,4.2h1.5h66.6h1.9c2.2,0,4.2-2.5,4.2-4.2V65l0,0C125.7,62.7,125.7,37.2,125.7,34.3z"/>
</svg>
