<?xml version="1.0" encoding="utf-8"?>
<!-- Generator: Adobe Illustrator 22.1.0, SVG Export Plug-In . SVG Version: 6.00 Build 0)  -->
<svg version="1.1" id="EDIT" xmlns="http://www.w3.org/2000/svg" xmlns:xlink="http://www.w3.org/1999/xlink" x="0px" y="0px"
	 viewBox="0 0 173 97" style="enable-background:new 0 0 173 97;" xml:space="preserve">
<style type="text/css">
	.st0{display:none;fill:#A82E2E;}
	.st1{fill:#A82E2E;}
	.st2{display:none;fill:#B53535;}
	.st3{fill:#333333;}
	.st4{clip-path:url(#SVGID_2_);fill:#333333;}
	.st5{fill:#FFFFFF;}
	.st6{font-family:'SourceSansPro-Black';}
	.st7{font-size:5.7969px;}
	.st8{display:none;enable-background:new    ;}
	.st9{display:inline;fill:#FFFFFF;}
	.st10{display:none;}
</style>
<g id="Layer_4_copy">
	<g id="Scenes_x5F__x5B_Selection_x5D_">
		<path id="_x3C_Rectangle_x3E__x5B_original_x5D__2_" class="st0" d="M118.5,70.8H54.6c-4.1,0-7.3-3.2-7.3-7.3v-30
			c0-4.1,3.2-7.3,7.3-7.3h63.9c4.1,0,7.3,3.2,7.3,7.3v30C125.8,67.5,122.5,70.8,118.5,70.8z"/>
		<path id="XMLID_54_" class="st1" d="M118.5,70.8H54.6c-4.1,0-7.3-3.2-7.3-7.3V35.7c0-4.1,3.2-7.3,7.3-7.3h63.9
			c4.1,0,7.3,3.2,7.3,7.3v27.8C125.8,67.5,122.5,70.8,118.5,70.8z"/>
		<path id="XMLID_13_" class="st2" d="M118.5,70.8H54.6c-4.1,0-7.3-3.2-7.3-7.3V35.7c0-4.1,3.2-7.3,7.3-7.3h63.9
			c4.1,0,7.3,3.2,7.3,7.3v27.8C125.8,67.5,122.5,70.8,118.5,70.8z"/>
		<path id="XMLID_8_" class="st3" d="M118.5,70.8H54.6c-4.1,0-7.3-3.2-7.3-7.3v-30c0-4.1,3.2-7.3,7.3-7.3h14c2.9,0,4.4,1.5,5.5,2.6
			c0.9,0.9,2.6,2.5,8.9,2.5h35.5c4.1,0,7.3,3.2,7.3,7.3v24.9C125.8,67.5,122.5,70.8,118.5,70.8z"/>
		<g>
			<g>
				<g>
					<g>
						<defs>
							<rect id="SVGID_1_" x="23" y="14.3" width="80.5" height="71.3"/>
						</defs>
						<clipPath id="SVGID_2_">
							<use xlink:href="#SVGID_1_"  style="overflow:visible;"/>
						</clipPath>
						<path id="XMLID_53_" class="st4" d="M118.5,70.8H54.6c-4.1,0-7.3-3.2-7.3-7.3v-30c0-4.1,3.2-7.3,7.3-7.3h14
							c2.9,0,4.4,1.5,5.5,2.6c0.9,0.9,2.6,2.5,8.9,2.5h35.5c4.1,0,7.3,3.2,7.3,7.3v24.9C125.8,67.5,122.5,70.8,118.5,70.8z"/>
					</g>
				</g>
			</g>
		</g>
		<path id="XMLID_52_" class="st2" d="M47.3,31.1c0-2.6,2-4.7,4.1-4.7c2,0,20.2,0,22,0c3.1,0,5.2,3.3,8,3.3c3.5,0,37.6,0,39.6,0
			c3.1,0,4.7,2.3,4.7,4.5c0,2.9,0,28.4,0,30.6s-3.2,6-6.1,6s-64.5,0-66.5,0c-0.7,0-5.7-2.8-5.7-3.8C47.3,64.7,47.3,31.1,47.3,31.1z"
			/>
		<path id="XMLID_51_" class="st0" d="M121.4,70.8h-70c-2,0-4.2-2.2-4.2-4.2V36.9c0-2.3,1.9-4.2,4.2-4.2h70c2.3,0,4.2,1.9,4.2,4.2
			v29.7C125.7,68.3,123.6,70.8,121.4,70.8z"/>
		<g id="Layer_24_copy_2">
		</g>
	</g>
	<path class="st1" d="M118.7,70.8h-10.6v-8.4c0-1.6,1.3-2.8,2.8-2.8h14.8v4.1C125.8,67.6,122.6,70.8,118.7,70.8z"/>
	<text transform="matrix(1 0 0 1 112.8445 66.733)" class="st5 st6 st7">2.0</text>
	<g class="st8">
		<path class="st9" d="M114.3,65.7c0.2,0.2,0.5,0.3,0.8,0.3c0.3,0,0.5-0.1,0.5-0.3c0-0.3-0.1-0.4-0.9-0.4v-0.7
			c0.6,0,0.8-0.2,0.8-0.4c0-0.2-0.1-0.3-0.4-0.3c-0.2,0-0.4,0.1-0.6,0.3l-0.5-0.6c0.4-0.3,0.7-0.5,1.2-0.5c0.8,0,1.3,0.4,1.3,1
			c0,0.4-0.2,0.6-0.6,0.8v0c0.4,0.1,0.7,0.4,0.7,0.9c0,0.7-0.7,1.1-1.4,1.1c-0.6,0-1-0.2-1.3-0.5L114.3,65.7z"/>
		<path class="st9" d="M117.1,64.9c0-1.3,0.6-1.9,1.4-1.9c0.8,0,1.4,0.6,1.4,1.9c0,1.3-0.6,1.9-1.4,1.9
			C117.7,66.8,117.1,66.1,117.1,64.9z M118.9,64.9c0-1-0.2-1.1-0.4-1.1c-0.2,0-0.4,0.2-0.4,1.1s0.2,1.2,0.4,1.2
			C118.7,66,118.9,65.9,118.9,64.9z"/>
	</g>
	<g class="st8">
		<path class="st9" d="M114,66.2c0.9-0.8,1.5-1.4,1.5-1.9c0-0.3-0.2-0.5-0.5-0.5c-0.2,0-0.4,0.2-0.6,0.3l-0.5-0.5
			c0.4-0.4,0.7-0.6,1.3-0.6c0.7,0,1.3,0.5,1.3,1.2c0,0.6-0.6,1.2-1.1,1.8c0.2,0,0.5,0,0.6,0h0.6v0.8H114V66.2z"/>
		<path class="st9" d="M119.3,64c-0.1-0.1-0.3-0.3-0.6-0.3c-0.4,0-0.6,0.2-0.7,1c0.2-0.2,0.5-0.4,0.7-0.4c0.6,0,1.1,0.3,1.1,1.1
			c0,0.8-0.6,1.3-1.3,1.3c-0.7,0-1.4-0.5-1.4-1.8c0-1.3,0.7-2,1.5-2c0.5,0,0.9,0.2,1.1,0.5L119.3,64z M118.9,65.6
			c0-0.4-0.2-0.4-0.4-0.4c-0.2,0-0.3,0.1-0.5,0.3c0.1,0.5,0.3,0.6,0.5,0.6C118.7,66.1,118.9,65.9,118.9,65.6z"/>
	</g>
	<g class="st8">
		<path class="st9" d="M112.4,66.2c0.9-0.8,1.5-1.4,1.5-1.9c0-0.3-0.2-0.5-0.5-0.5c-0.2,0-0.4,0.2-0.6,0.3l-0.5-0.5
			c0.4-0.4,0.7-0.6,1.3-0.6c0.7,0,1.3,0.5,1.3,1.2c0,0.6-0.6,1.2-1.1,1.8c0.2,0,0.5,0,0.6,0h0.6v0.8h-2.7V66.2z"/>
		<path class="st9" d="M115.9,65.7c0.2,0.2,0.5,0.3,0.8,0.3c0.3,0,0.5-0.1,0.5-0.3c0-0.3-0.1-0.4-0.9-0.4v-0.7
			c0.6,0,0.8-0.2,0.8-0.4c0-0.2-0.1-0.3-0.4-0.3c-0.2,0-0.4,0.1-0.6,0.3l-0.5-0.6c0.4-0.3,0.7-0.5,1.2-0.5c0.8,0,1.3,0.4,1.3,1
			c0,0.4-0.2,0.6-0.6,0.8v0c0.4,0.1,0.7,0.4,0.7,0.9c0,0.7-0.7,1.1-1.4,1.1c-0.6,0-1-0.2-1.3-0.5L115.9,65.7z"/>
		<path class="st9" d="M118.7,64.9c0-1.3,0.6-1.9,1.4-1.9c0.8,0,1.4,0.6,1.4,1.9c0,1.3-0.6,1.9-1.4,1.9
			C119.2,66.8,118.7,66.1,118.7,64.9z M120.5,64.9c0-1-0.2-1.1-0.4-1.1c-0.2,0-0.4,0.2-0.4,1.1s0.2,1.2,0.4,1.2
			C120.3,66,120.5,65.9,120.5,64.9z"/>
	</g>
	<g class="st8">
		<path class="st9" d="M112.6,65.9h0.8V64h-0.7v-0.6c0.4-0.1,0.7-0.2,1-0.4h0.7v2.9h0.7v0.8h-2.4V65.9z"/>
		<path class="st9" d="M115.5,66.2c0.9-0.8,1.5-1.4,1.5-1.9c0-0.3-0.2-0.5-0.5-0.5c-0.2,0-0.4,0.2-0.6,0.3l-0.5-0.5
			c0.4-0.4,0.7-0.6,1.3-0.6c0.7,0,1.3,0.5,1.3,1.2c0,0.6-0.6,1.2-1.1,1.8c0.2,0,0.5,0,0.6,0h0.6v0.8h-2.7V66.2z"/>
		<path class="st9" d="M120.8,64c-0.1-0.1-0.3-0.3-0.6-0.3c-0.4,0-0.6,0.2-0.7,1c0.2-0.2,0.5-0.4,0.7-0.4c0.6,0,1.1,0.3,1.1,1.1
			c0,0.8-0.6,1.3-1.3,1.3c-0.7,0-1.4-0.5-1.4-1.8c0-1.3,0.7-2,1.5-2c0.5,0,0.9,0.2,1.1,0.5L120.8,64z M120.5,65.6
			c0-0.4-0.2-0.4-0.4-0.4c-0.2,0-0.3,0.1-0.5,0.3c0.1,0.5,0.3,0.6,0.5,0.6C120.3,66.1,120.5,65.9,120.5,65.6z"/>
	</g>
	<g class="st8">
		<path class="st9" d="M115.2,65.9h-0.4v0.8h-0.9v-0.8h-1.6v-0.7l1.3-2.2h1.2v2.1h0.4V65.9z M113.9,65.2v-0.4c0-0.2,0-0.6,0-0.9h0
			c-0.1,0.2-0.2,0.4-0.3,0.7l-0.3,0.6H113.9z"/>
		<path class="st9" d="M115.9,65.7c0.2,0.2,0.5,0.3,0.7,0.3c0.3,0,0.5-0.2,0.5-0.5c0-0.3-0.2-0.5-0.5-0.5c-0.2,0-0.3,0-0.5,0.2
			l-0.4-0.3l0.1-1.9h2.2v0.8h-1.3l0,0.5c0.1,0,0.2-0.1,0.3-0.1c0.6,0,1.2,0.4,1.2,1.1c0,0.8-0.6,1.3-1.4,1.3c-0.6,0-1-0.2-1.3-0.5
			L115.9,65.7z"/>
		<path class="st9" d="M118.7,64.9c0-1.3,0.6-1.9,1.4-1.9c0.8,0,1.4,0.6,1.4,1.9c0,1.3-0.6,1.9-1.4,1.9
			C119.2,66.8,118.7,66.1,118.7,64.9z M120.5,64.9c0-1-0.2-1.1-0.4-1.1c-0.2,0-0.4,0.2-0.4,1.1s0.2,1.2,0.4,1.2
			C120.3,66,120.5,65.9,120.5,64.9z"/>
	</g>
	<g class="st8">
		<path class="st9" d="M112.4,66.2c0.9-0.8,1.5-1.4,1.5-1.9c0-0.3-0.2-0.5-0.5-0.5c-0.2,0-0.4,0.2-0.6,0.3l-0.5-0.5
			c0.4-0.4,0.7-0.6,1.3-0.6c0.7,0,1.3,0.5,1.3,1.2c0,0.6-0.6,1.2-1.1,1.8c0.2,0,0.5,0,0.6,0h0.6v0.8h-2.7V66.2z"/>
		<path class="st9" d="M117.7,64c-0.1-0.1-0.3-0.3-0.6-0.3c-0.4,0-0.6,0.2-0.7,1c0.2-0.2,0.5-0.4,0.7-0.4c0.6,0,1.1,0.3,1.1,1.1
			c0,0.8-0.6,1.3-1.3,1.3c-0.7,0-1.4-0.5-1.4-1.8c0-1.3,0.7-2,1.5-2c0.5,0,0.9,0.2,1.1,0.5L117.7,64z M117.4,65.6
			c0-0.4-0.2-0.4-0.4-0.4c-0.2,0-0.3,0.1-0.5,0.3c0.1,0.5,0.3,0.6,0.5,0.6C117.2,66.1,117.4,65.9,117.4,65.6z"/>
		<path class="st9" d="M119.3,64.9L119.3,64.9c-0.3-0.2-0.5-0.5-0.5-0.9c0-0.6,0.5-1,1.2-1c0.7,0,1.1,0.4,1.1,1
			c0,0.3-0.2,0.6-0.5,0.8v0c0.4,0.2,0.6,0.5,0.6,1c0,0.6-0.5,1-1.3,1c-0.7,0-1.3-0.4-1.3-1C118.7,65.4,119,65.1,119.3,64.9z
			 M120,66.1c0.2,0,0.4-0.1,0.4-0.4c0-0.3-0.3-0.4-0.7-0.6c-0.1,0.1-0.2,0.3-0.2,0.5C119.6,66,119.8,66.1,120,66.1z M120.4,64.1
			c0-0.3-0.1-0.4-0.4-0.4c-0.2,0-0.3,0.1-0.3,0.4c0,0.2,0.2,0.4,0.5,0.5C120.3,64.4,120.4,64.2,120.4,64.1z"/>
	</g>
	<g class="st10">
		<path class="st9" d="M113.3,65.9h0.8V64h-0.7v-0.6c0.4-0.1,0.7-0.2,1-0.4h0.7v2.9h0.7v0.8h-2.4L113.3,65.9L113.3,65.9z"/>
		<path class="st9" d="M117,65.6c0.3,0,0.6,0.3,0.6,0.6c0,0.3-0.2,0.6-0.6,0.6s-0.6-0.3-0.6-0.6S116.6,65.6,117,65.6z"/>
		<path class="st9" d="M118.1,64.9c0-1.3,0.6-1.9,1.4-1.9s1.4,0.6,1.4,1.9s-0.6,1.9-1.4,1.9S118.1,66.1,118.1,64.9z M119.9,64.9
			c0-1-0.2-1.1-0.4-1.1c-0.2,0-0.4,0.2-0.4,1.1s0.2,1.2,0.4,1.2C119.7,66,119.9,65.9,119.9,64.9z"/>
	</g>
	<g class="st10">
		<path class="st9" d="M113.1,66.2c0.9-0.8,1.5-1.4,1.5-1.9c0-0.3-0.2-0.5-0.5-0.5c-0.2,0-0.4,0.2-0.6,0.3l-0.5-0.5
			c0.4-0.4,0.7-0.6,1.3-0.6c0.7,0,1.3,0.5,1.3,1.2c0,0.6-0.6,1.2-1.1,1.8c0.2,0,0.5,0,0.6,0h0.6v0.8H113L113.1,66.2L113.1,66.2z"/>
		<path class="st9" d="M117,65.6c0.3,0,0.6,0.3,0.6,0.6c0,0.3-0.2,0.6-0.6,0.6s-0.6-0.3-0.6-0.6S116.6,65.6,117,65.6z"/>
		<path class="st9" d="M118.1,64.9c0-1.3,0.6-1.9,1.4-1.9s1.4,0.6,1.4,1.9s-0.6,1.9-1.4,1.9S118.1,66.1,118.1,64.9z M119.9,64.9
			c0-1-0.2-1.1-0.4-1.1c-0.2,0-0.4,0.2-0.4,1.1s0.2,1.2,0.4,1.2C119.7,66,119.9,65.9,119.9,64.9z"/>
	</g>
</g>
</svg>
